<?xml version="1.0" encoding="utf-8"?>
<!-- Generator: Adobe Illustrator 15.1.0, SVG Export Plug-In  -->
<!DOCTYPE svg PUBLIC "-//W3C//DTD SVG 1.1//EN" "http://www.w3.org/Graphics/SVG/1.1/DTD/svg11.dtd" [
	<!ENTITY ns_flows "http://ns.adobe.com/Flows/1.0/">
]>
<svg version="1.1"
	 xmlns="http://www.w3.org/2000/svg" xmlns:xlink="http://www.w3.org/1999/xlink" xmlns:a="http://ns.adobe.com/AdobeSVGViewerExtensions/3.0/"
	 x="0px" y="0px" width="152px" height="43px" viewBox="-7.625 -1.253 152 43" enable-background="new -7.625 -1.253 152 43"
	 xml:space="preserve">
<defs>
</defs>
<radialGradient id="SVGID_1_" cx="19.1406" cy="38.2861" r="17.9397" gradientTransform="matrix(1 0 0 0.0995 0 34.4779)" gradientUnits="userSpaceOnUse">
	<stop  offset="0" style="stop-color:#000000;stop-opacity:0.69"/>
	<stop  offset="1" style="stop-color:#000000;stop-opacity:0"/>
</radialGradient>
<ellipse fill="url(#SVGID_1_)" cx="19.141" cy="38.284" rx="19.141" ry="2.275"/>
<radialGradient id="SVGID_2_" cx="10.8447" cy="27.7178" r="18.1442" gradientUnits="userSpaceOnUse">
	<stop  offset="0.2096" style="stop-color:#FDFEFF"/>
	<stop  offset="0.7239" style="stop-color:#D9DDE3"/>
	<stop  offset="1" style="stop-color:#C4CAD2"/>
</radialGradient>
<path fill="url(#SVGID_2_)" d="M32.082,19.57c0,0-0.494-1.653-0.991-1.687c-0.495-0.037-3.008,0.229-4.655,0.271
	c-1.647,0.042-4.015,0.641-6.245,0.557c-2.23-0.081-3.881-0.544-4.961-0.777c-0.579-0.127-2.415-0.102-4.048-0.055
	c-2.124-0.269-3.808-0.946-4.835-1.354c-0.227,0.031-0.429,0.045-0.662,0.045c0.028,1.632,0.077,3.487,0.163,5.42
	c0.02,0.565,0.05,1.158,0.086,1.763c0.006,0.1,0.011,0.2,0.016,0.298c0.001-0.002,0.002-0.005,0.002-0.008
	c0.122,1.894,0.304,3.862,0.461,5.396c-0.018-0.041-0.04-0.081-0.058-0.122c0.37,3.622,0.936,6.781,1.789,8.349
	c1.743,0.763,4.531,1.245,7.585,1.466c-1.702-0.138-3.397-0.364-5.003-0.692c3.694,0.362,6.674,0.589,9.075,0.589
	c7.288,0,9.236-0.864,9.738-1.864h0.603L32.082,19.57z"/>
<radialGradient id="SVGID_3_" cx="26.3203" cy="16.5088" r="8.638235e-004" gradientUnits="userSpaceOnUse">
	<stop  offset="0" style="stop-color:#F0F3FF"/>
	<stop  offset="0.3497" style="stop-color:#E9E9EF"/>
	<stop  offset="0.4806" style="stop-color:#E2E3EA"/>
	<stop  offset="0.6726" style="stop-color:#CED2DA"/>
	<stop  offset="0.9013" style="stop-color:#AEB6C1"/>
	<stop  offset="1" style="stop-color:#9EA8B5"/>
</radialGradient>
<polyline fill="url(#SVGID_3_)" points="26.32,16.509 26.319,16.51 26.32,16.509 "/>
<radialGradient id="SVGID_4_" cx="26.3438" cy="16.4912" r="0.0036" gradientUnits="userSpaceOnUse">
	<stop  offset="0" style="stop-color:#F0F3FF"/>
	<stop  offset="0.3497" style="stop-color:#E9E9EF"/>
	<stop  offset="0.4806" style="stop-color:#E2E3EA"/>
	<stop  offset="0.6726" style="stop-color:#CED2DA"/>
	<stop  offset="0.9013" style="stop-color:#AEB6C1"/>
	<stop  offset="1" style="stop-color:#9EA8B5"/>
</radialGradient>
<polyline fill="url(#SVGID_4_)" points="26.348,16.49 26.342,16.492 26.348,16.49 "/>
<radialGradient id="SVGID_5_" cx="26.3857" cy="16.4561" r="0.0097" gradientUnits="userSpaceOnUse">
	<stop  offset="0" style="stop-color:#F0F3FF"/>
	<stop  offset="0.3497" style="stop-color:#E9E9EF"/>
	<stop  offset="0.4806" style="stop-color:#E2E3EA"/>
	<stop  offset="0.6726" style="stop-color:#CED2DA"/>
	<stop  offset="0.9013" style="stop-color:#AEB6C1"/>
	<stop  offset="1" style="stop-color:#9EA8B5"/>
</radialGradient>
<polyline fill="url(#SVGID_5_)" points="26.396,16.451 26.383,16.461 26.396,16.451 "/>
<radialGradient id="SVGID_6_" cx="27.6123" cy="16.8398" r="2.4631" gradientUnits="userSpaceOnUse">
	<stop  offset="0" style="stop-color:#F0F3FF"/>
	<stop  offset="0.3497" style="stop-color:#E9E9EF"/>
	<stop  offset="0.4806" style="stop-color:#E2E3EA"/>
	<stop  offset="0.6726" style="stop-color:#CED2DA"/>
	<stop  offset="0.9013" style="stop-color:#AEB6C1"/>
	<stop  offset="1" style="stop-color:#9EA8B5"/>
</radialGradient>
<path fill="url(#SVGID_6_)" d="M26.436,16.42L26.436,16.42L26.436,16.42c1.458,0.407,2.767,0.681,3.932,0.825
	C29.202,17.098,27.896,16.822,26.436,16.42"/>
<radialGradient id="SVGID_7_" cx="18.6533" cy="28.2373" r="12.5833" gradientUnits="userSpaceOnUse">
	<stop  offset="0.2096" style="stop-color:#E2E7EB"/>
	<stop  offset="0.8129" style="stop-color:#BEC5CE"/>
	<stop  offset="1" style="stop-color:#B2B9C4"/>
</radialGradient>
<path fill="url(#SVGID_7_)" d="M5.683,16.046c0.476,0.148,0.994,0.29,1.556,0.424c1.054,0.251,3.223,0.915,5.275,0.915
	c0.975,0,1.925-0.309,2.716-0.725c0.451,0.641,2.584,1.852,5.234,1.852c0.249,0,0.499-0.008,0.757-0.027
	c1.637-0.128,3.419-0.68,5.099-1.975l0.001-0.001c0.01-0.007,0.016-0.011,0.021-0.017c0.004-0.002,0.004-0.002,0.006-0.002
	c0.012-0.011,0.023-0.018,0.035-0.029c0.003-0.002,0.008-0.006,0.013-0.01c0.015-0.012,0.027-0.02,0.04-0.031l0,0
	c1.458,0.407,2.767,0.681,3.932,0.825c0.688,0.092,1.328,0.135,1.918,0.135c0.109,0,0.221-0.003,0.328-0.005
	c-0.233,5.91-0.756,14.493-1.906,20.29c-1,0.559-2.809,1.007-5.065,1.293c-1.764,0.209-3.784,0.315-5.839,0.315
	c-1.365,0-2.744-0.047-4.074-0.143c-1.702-0.138-3.397-0.364-5.003-0.692c3.694,0.362,6.674,0.506,9.075,0.506
	c9.005,0,9.861-2.031,9.902-2.24c2.248-10.382,1.643-18.407,1.447-18.441c-0.601-0.107-1.363-0.191-2.275-0.191
	c-1.384,0-3.111,0.198-5.154,0.816c-1.018,0.31-2.238,0.44-3.564,0.44c-0.539,0-1.697-0.063-1.716-0.065
	c-6.858-0.751-9.522-1.762-12.756-2.692L5.683,16.046"/>
<radialGradient id="SVGID_8_" cx="10.9111" cy="9.208" r="23.1162" gradientUnits="userSpaceOnUse">
	<stop  offset="0.2096" style="stop-color:#FDFEFF"/>
	<stop  offset="0.7239" style="stop-color:#D9DDE3"/>
	<stop  offset="1" style="stop-color:#C4CAD2"/>
</radialGradient>
<path fill="url(#SVGID_8_)" d="M15.229,16.819l0.004-0.011c1.066,0.853,2.73,1.325,4.353,1.325c2.434,0,4.752-1.072,4.74-3.546
	c1.795,0.886,3.374,1.264,4.736,1.264c4.276,0,6.41-3.72,6.41-7.024c0-1.837-1.35-5.193-5.266-6.254
	c-0.439-0.12-1.811-0.384-2.614-0.293c-2.535,0.293-3.565,0.423-4.503,0.423c-0.5,0-0.978-0.119-1.654-0.484
	c-0.939-0.507-3.856-1.771-4.884-1.918C15.09,0.097,13.757,0,12.539,0h-0.208C2.429,0,0.413,6.292,0.413,10.173
	c0,2.649,0.927,4.532,5.262,5.873c0.002,0,0.004,0,0.008,0C12.828,18.512,15.229,16.819,15.229,16.819z"/>
<radialGradient id="SVGID_9_" cx="-745.1299" cy="-261.5757" r="0.5931" gradientTransform="matrix(41.8062 0 0 -41.486 31162.7441 -10842.6338)" gradientUnits="userSpaceOnUse">
	<stop  offset="0.2096" style="stop-color:#E2E7EB"/>
	<stop  offset="0.8129" style="stop-color:#BEC5CE"/>
	<stop  offset="1" style="stop-color:#B2B9C4"/>
</radialGradient>
<path fill="url(#SVGID_9_)" d="M30.207,2.573c3.849,1.354,5.266,4.417,5.266,6.254c0,3.305-2.134,7.024-6.41,7.024
	c-1.362,0-2.941-0.378-4.736-1.264c0.012,2.474-2.307,3.546-4.74,3.546c-1.622,0-3.286-0.473-4.353-1.325l-0.004,0.011
	c0.453,0.639,2.586,1.692,5.234,1.692c0.249,0,0.498-0.045,0.757-0.027c3.19,0.206,5.202-2.053,5.215-2.064l0,0
	c1.461,0.402,2.767,0.678,3.932,0.825c0.678,0.086,1.308,0.13,1.89,0.13c0.12,0,0.239-0.003,0.356-0.007c0.012,0,0.025,0,0.038,0
	l0,0c0.789-0.027,1.484-0.139,2.095-0.327c2.524-0.816,3.583-2.737,3.358-6.498L38.049,9.92c-0.162-1.692-1.064-3.311-2.661-4.806
	C34.114,4,32.383,3.099,30.207,2.573"/>
<radialGradient id="SVGID_10_" cx="11.1484" cy="21.4697" r="29.917" gradientUnits="userSpaceOnUse">
	<stop  offset="0.2096" style="stop-color:#E30E6F"/>
	<stop  offset="0.6402" style="stop-color:#BF0766"/>
	<stop  offset="1" style="stop-color:#9E005D"/>
</radialGradient>
<path fill="url(#SVGID_10_)" d="M23.391,22.625c-1.392,0-3.068,0.734-3.725,1.09c-0.483-0.684-1.424-1.09-2.563-1.09
	c-0.181,0-0.38,0.021-0.586,0.058c-1.463,0.113-1.974,0.042-2.901-0.143c-1.057-0.211-2.008-1.896-2.06-2.636
	c-0.74,1.229-0.514,2.622,0.247,3.541v1.023v8.681h2.486V25.16c0,0,1.166-0.683,2.104-0.683c1.176,0,1.514,1.176,1.479,2.365
	c0.89-0.78,1.585-1.353,2.374-1.747c0.446-0.224,1.293-0.556,2.155-0.556c1.65,0,1.825,1.575,1.825,3.527v5.072l0.785,0.01h1.649
	V27.8C26.662,24.911,26.232,22.625,23.391,22.625z"/>
<radialGradient id="SVGID_11_" cx="11.1455" cy="21.4619" r="29.933" gradientUnits="userSpaceOnUse">
	<stop  offset="0.2096" style="stop-color:#E30E6F"/>
	<stop  offset="0.6402" style="stop-color:#BF0766"/>
	<stop  offset="1" style="stop-color:#9E005D"/>
</radialGradient>
<path fill="url(#SVGID_11_)" d="M22.684,30.219c-0.126-0.663-1.382-2.221-2.469-0.105C21.032,29.24,21.965,29.282,22.684,30.219z"/>
<radialGradient id="SVGID_12_" cx="11.1494" cy="21.4697" r="29.9175" gradientUnits="userSpaceOnUse">
	<stop  offset="0.2096" style="stop-color:#E30E6F"/>
	<stop  offset="0.6402" style="stop-color:#BF0766"/>
	<stop  offset="1" style="stop-color:#9E005D"/>
</radialGradient>
<path fill="url(#SVGID_12_)" d="M22.989,30.958c-0.459,4.296-2.159,5.346-3.13,5.59c-0.183,0.045-0.378,0.071-0.578,0.071
	c-1.404,0-2.81-1.052-3.203-2.391c-0.02-0.069,0.001-0.146,0.055-0.194c0.055-0.049,0.132-0.066,0.199-0.039
	c0.002,0,0.307,0.113,0.831,0.113c1.01,0,3.066-0.428,5.488-3.296c0.053-0.063,0.143-0.086,0.222-0.053
	C22.951,30.794,22.997,30.876,22.989,30.958z M20.361,34.258c-0.213,0.137-0.564,0.429-0.918,0.893
	c0.043-0.377,0.183-0.673,0.36-0.816c-1.191,0.276-2.473,1.208-2.473,1.208c1.673,1.26,3.539,0.349,4.028-0.805
	C21.133,34.359,20.787,34.255,20.361,34.258z"/>
<radialGradient id="SVGID_13_" cx="11.1484" cy="21.4717" r="29.9128" gradientUnits="userSpaceOnUse">
	<stop  offset="0.2096" style="stop-color:#E30E6F"/>
	<stop  offset="0.6402" style="stop-color:#BF0766"/>
	<stop  offset="1" style="stop-color:#9E005D"/>
</radialGradient>
<path fill="url(#SVGID_13_)" d="M17.979,30.162c0.018-0.077,0.049-0.151,0.049-0.237c0-0.584-0.476-1.062-1.062-1.062
	s-1.059,0.478-1.059,1.062c0,0.172,0.048,0.329,0.12,0.47C16.552,30.147,17.321,29.903,17.979,30.162z"/>
<g>
	<g>
		<path fill="#534741" d="M45.869,30.974l0.01-0.184c0-0.128,0.004-0.296,0.012-0.506c0.006-0.207,0.012-0.461,0.02-0.761
			c0.008-0.302,0.016-0.63,0.022-0.987c0.006-0.358,0.012-0.749,0.016-1.171c0.004-0.424,0.006-0.859,0.006-1.305
			c0-0.45,0-0.916,0-1.402c0-0.983-0.008-1.968-0.021-2.962c-0.014-0.99-0.03-1.801-0.042-2.426
			c-0.016-0.628-0.021-0.987-0.021-1.081c0-0.38,0.194-0.621,0.584-0.73c0.112-0.021,0.215-0.031,0.307-0.031
			c0.315,0,0.538,0.136,0.667,0.408c0.015,0.015,0.171,0.316,0.472,0.907c0.3,0.591,0.691,1.373,1.171,2.347
			c0.48,0.976,0.899,1.849,1.257,2.622c0.315,0.694,0.65,1.478,1.01,2.353c0-0.357-0.004-0.893-0.011-1.602
			c-0.008-0.708-0.011-1.224-0.011-1.545c0-0.51,0.003-1.022,0.011-1.538c0.007-0.515,0.016-0.962,0.026-1.341
			c0.011-0.381,0.023-0.717,0.033-1.017c0.011-0.298,0.019-0.531,0.025-0.704c0.008-0.172,0.012-0.26,0.012-0.269
			c0.007-0.222,0.097-0.388,0.269-0.493c0.149-0.094,0.333-0.139,0.548-0.139c0.029,0,0.058,0,0.086,0
			c0.257,0.014,0.464,0.083,0.617,0.209c0.154,0.124,0.221,0.298,0.2,0.52l-0.012,0.078c0,0.055,0,0.133,0,0.229
			c0,0.098-0.004,0.21-0.01,0.344c-0.009,0.134-0.014,0.289-0.017,0.467c-0.004,0.18-0.008,0.367-0.012,0.564
			s-0.009,0.417-0.016,0.661s-0.011,0.489-0.011,0.741c0,0.251-0.001,0.523-0.005,0.814c-0.004,0.295-0.006,0.586-0.006,0.873
			c0,0.98,0.01,2.094,0.027,3.345c0.018,1.252,0.036,2.308,0.054,3.18c0.018,0.869,0.026,1.342,0.026,1.412
			c0,0.122-0.006,0.221-0.017,0.295c-0.01,0.077-0.038,0.153-0.08,0.231c-0.043,0.079-0.112,0.139-0.21,0.178
			c-0.097,0.039-0.219,0.062-0.37,0.07c-0.029,0-0.058,0-0.085,0c-0.28,0-0.485-0.035-0.612-0.108
			c-0.146-0.07-0.259-0.218-0.344-0.439c0-0.008-0.106-0.28-0.318-0.821c-0.213-0.542-0.429-1.101-0.651-1.676
			c-0.224-0.578-0.501-1.263-0.836-2.063c-0.333-0.797-0.638-1.496-0.909-2.091c-0.36-0.815-0.719-1.578-1.078-2.286
			c0.015,0.516,0.021,1.352,0.021,2.515c0,0.364-0.001,0.734-0.006,1.11c-0.003,0.376-0.005,0.729-0.005,1.057
			c0,0.333-0.004,0.658-0.011,0.978c-0.008,0.324-0.013,0.621-0.016,0.894c-0.004,0.272-0.008,0.528-0.012,0.774
			c-0.004,0.243-0.008,0.458-0.015,0.644c-0.008,0.187-0.012,0.346-0.012,0.478c0,0.134,0,0.235,0,0.307l-0.01,0.118
			c-0.008,0.077-0.021,0.146-0.043,0.198c-0.021,0.055-0.059,0.113-0.111,0.178c-0.052,0.063-0.14,0.114-0.259,0.144
			c-0.121,0.033-0.273,0.049-0.457,0.049c-0.185,0-0.338-0.019-0.462-0.059c-0.125-0.041-0.21-0.095-0.26-0.161
			c-0.05-0.07-0.084-0.13-0.102-0.188C45.877,31.121,45.869,31.053,45.869,30.974z"/>
		<path fill="#534741" d="M54.839,30.835c0-0.045,0.054-0.29,0.165-0.738c0.11-0.448,0.286-1.166,0.531-2.155
			c0.242-0.985,0.506-2.054,0.788-3.203c0.151-0.617,0.313-1.279,0.487-1.981c0.173-0.699,0.342-1.325,0.509-1.873
			c0.167-0.549,0.32-1.053,0.464-1.511c0.141-0.459,0.255-0.815,0.34-1.064l0.127-0.386c0.094-0.288,0.342-0.456,0.747-0.505
			c0.034,0,0.065,0,0.095,0c0.424,0,0.691,0.181,0.798,0.547c0.171,0.552,0.434,1.553,0.787,2.999
			c0.354,1.449,0.665,2.791,0.927,4.032c0.201,1.04,0.397,2.049,0.586,3.023c0.188,0.973,0.326,1.683,0.413,2.125
			c0.086,0.44,0.129,0.674,0.129,0.694c0.007,0.057,0.011,0.114,0.011,0.172c0,0.156-0.047,0.291-0.138,0.405
			c-0.126,0.148-0.309,0.234-0.546,0.256c-0.05,0.007-0.099,0.01-0.148,0.01c-0.175,0.008-0.347-0.039-0.514-0.137
			c-0.211-0.132-0.328-0.301-0.349-0.508c-0.102-0.664-0.417-2.272-0.942-4.821l-2.481,0.106c-0.207,0.89-0.399,1.722-0.581,2.501
			c-0.179,0.779-0.31,1.337-0.389,1.679c-0.08,0.34-0.118,0.519-0.118,0.535c-0.052,0.267-0.176,0.444-0.377,0.536
			c-0.122,0.057-0.258,0.089-0.407,0.089c-0.094,0-0.19-0.012-0.291-0.033c-0.429-0.078-0.644-0.288-0.644-0.624
			C54.817,30.948,54.824,30.891,54.839,30.835z M58.029,24.57l1.739-0.075c-0.282-1.269-0.54-2.352-0.771-3.255
			C58.656,22.301,58.333,23.41,58.029,24.57z"/>
		<path fill="#534741" d="M64.119,30.929c0-0.759,0.01-1.579,0.028-2.46c0.018-0.88,0.038-1.72,0.063-2.522
			c0.025-0.802,0.05-1.601,0.075-2.391c0.026-0.791,0.052-1.511,0.082-2.158c0.027-0.65,0.053-1.223,0.073-1.721
			c0.021-0.497,0.04-0.888,0.055-1.175l0.021-0.429c0.009-0.195,0.078-0.348,0.207-0.464c0.13-0.113,0.285-0.178,0.463-0.191
			c0.037,0,0.071,0,0.102,0c0.469,0,0.777,0.146,0.927,0.438c0,0.008,0.023,0.061,0.069,0.156c0.046,0.098,0.107,0.229,0.183,0.394
			c0.075,0.164,0.163,0.361,0.269,0.591c0.104,0.228,0.219,0.503,0.348,0.826c0.127,0.324,0.263,0.665,0.401,1.027
			c0.14,0.361,0.293,0.777,0.46,1.251c0.169,0.473,0.331,0.955,0.488,1.451c0.149-0.48,0.308-0.953,0.471-1.42
			c0.165-0.464,0.317-0.88,0.456-1.24c0.141-0.36,0.274-0.704,0.407-1.025c0.133-0.322,0.252-0.6,0.359-0.833
			c0.107-0.232,0.2-0.434,0.278-0.602c0.08-0.168,0.144-0.301,0.193-0.397c0.049-0.098,0.075-0.147,0.075-0.156
			c0.089-0.172,0.204-0.29,0.347-0.358c0.141-0.067,0.346-0.102,0.613-0.102c0.26,0.006,0.443,0.064,0.547,0.176
			c0.105,0.11,0.164,0.27,0.18,0.479c0,0.005,0.005,0.153,0.016,0.439c0.012,0.286,0.026,0.676,0.043,1.171
			c0.018,0.494,0.035,1.063,0.056,1.707c0.019,0.644,0.04,1.359,0.06,2.148c0.02,0.787,0.04,1.582,0.056,2.385
			c0.018,0.803,0.032,1.646,0.043,2.53c0.012,0.884,0.018,1.71,0.018,2.475c0,0.233-0.076,0.399-0.229,0.513
			c-0.153,0.109-0.348,0.166-0.586,0.166c-0.271,0-0.493-0.057-0.664-0.166c-0.176-0.113-0.261-0.279-0.261-0.513
			c0-2.634-0.058-5.576-0.172-8.828c-0.051,0.122-0.14,0.354-0.273,0.698c-0.133,0.343-0.235,0.611-0.311,0.806
			c-0.076,0.193-0.171,0.447-0.284,0.763c-0.115,0.313-0.22,0.629-0.317,0.938c-0.096,0.313-0.19,0.638-0.284,0.974
			c-0.07,0.243-0.172,0.412-0.305,0.503c-0.132,0.095-0.309,0.141-0.53,0.141c-0.443,0-0.728-0.222-0.856-0.665
			c-0.115-0.409-0.238-0.821-0.376-1.241c-0.135-0.418-0.253-0.762-0.354-1.025c-0.1-0.267-0.228-0.602-0.385-1.006
			c-0.158-0.403-0.269-0.699-0.333-0.885c-0.163,3.881-0.252,6.824-0.269,8.828c0,0.165-0.066,0.32-0.196,0.464
			c-0.132,0.142-0.358,0.215-0.678,0.215c-0.32,0-0.549-0.074-0.684-0.221C64.165,31.239,64.105,31.089,64.119,30.929z"/>
		<path fill="#534741" d="M74.701,30.704c0.007-0.015,0.022-0.331,0.043-0.95c0.021-0.619,0.041-1.476,0.059-2.567
			c0.019-1.094,0.028-2.142,0.028-3.152c0-0.359-0.004-0.717-0.012-1.075c-0.007-0.358-0.013-0.688-0.017-0.993
			c-0.003-0.305-0.009-0.601-0.016-0.893c-0.006-0.289-0.015-0.553-0.021-0.789c-0.008-0.235-0.015-0.459-0.021-0.671
			c-0.007-0.213-0.012-0.394-0.016-0.549c-0.005-0.152-0.007-0.285-0.011-0.397c-0.004-0.111-0.006-0.194-0.006-0.252l-0.011-0.097
			c0-0.021,0-0.046,0-0.075c0-0.206,0.084-0.393,0.251-0.558c0.16-0.18,0.366-0.268,0.621-0.268h0.698
			c0.378-0.01,0.729-0.011,1.059-0.011c0.328,0,0.67,0.026,1.029,0.084c0.357,0.057,0.679,0.144,0.964,0.258
			c0.587,0.259,1.033,0.623,1.341,1.095c0.314,0.495,0.482,1.147,0.504,1.957c0.008,0.148,0.008,0.293,0,0.43
			c0,0.596-0.036,1.068-0.106,1.419c-0.131,0.577-0.373,1.058-0.73,1.438c0.229,0.113,0.422,0.249,0.579,0.407
			c0.673,0.652,1.011,1.63,1.011,2.934c0,1.526-0.337,2.608-1.009,3.255c-0.48,0.48-1.148,0.772-2.005,0.881
			c-0.416,0.043-0.862,0.064-1.342,0.064c-0.427,0-0.752-0.009-0.977-0.021H75.59c-0.217,0-0.431-0.09-0.64-0.27
			C74.785,31.149,74.701,30.94,74.701,30.704z M76.495,19.136c0.059,1.173,0.087,2.575,0.087,4.199
			c1.397-0.021,2.239-0.174,2.525-0.462c0.228-0.25,0.343-0.843,0.343-1.771c0-0.079,0-0.161,0-0.249
			c-0.022-0.479-0.101-0.825-0.236-1.04s-0.317-0.369-0.545-0.463c-0.322-0.151-0.9-0.225-1.735-0.225
			C76.792,19.125,76.645,19.129,76.495,19.136z M76.495,29.888c0.385,0.007,0.735,0.012,1.049,0.012
			c0.157-0.007,0.304-0.012,0.439-0.012c0.414,0,0.767-0.036,1.056-0.106c0.29-0.071,0.509-0.184,0.658-0.333
			c0.336-0.337,0.504-1.01,0.504-2.02c0-0.796-0.161-1.354-0.482-1.677c-0.456-0.435-1.432-0.654-2.924-0.654
			c-0.072,0-0.142,0-0.213,0C76.582,26.916,76.554,28.513,76.495,29.888z"/>
		<path fill="#534741" d="M82.897,30.835c0-0.045,0.055-0.29,0.166-0.738c0.11-0.448,0.286-1.166,0.531-2.155
			c0.242-0.985,0.506-2.054,0.787-3.203c0.152-0.617,0.314-1.279,0.486-1.981c0.175-0.699,0.344-1.325,0.511-1.873
			c0.165-0.549,0.321-1.053,0.464-1.511c0.141-0.459,0.255-0.815,0.34-1.064l0.128-0.386c0.093-0.288,0.341-0.456,0.744-0.505
			c0.036,0,0.067,0,0.097,0c0.427,0,0.691,0.181,0.798,0.547c0.17,0.552,0.434,1.553,0.787,2.999
			c0.354,1.449,0.664,2.791,0.926,4.032c0.203,1.04,0.398,2.049,0.587,3.023c0.188,0.973,0.326,1.683,0.411,2.125
			c0.088,0.44,0.131,0.674,0.131,0.694c0.007,0.057,0.011,0.114,0.011,0.172c0,0.156-0.046,0.291-0.138,0.405
			c-0.126,0.148-0.308,0.234-0.546,0.256c-0.05,0.007-0.099,0.01-0.148,0.01c-0.176,0.008-0.347-0.039-0.516-0.137
			c-0.21-0.132-0.325-0.301-0.347-0.508c-0.103-0.664-0.417-2.272-0.942-4.821l-2.481,0.106c-0.207,0.89-0.401,1.722-0.58,2.501
			c-0.18,0.779-0.311,1.337-0.389,1.679c-0.08,0.34-0.12,0.519-0.12,0.535c-0.05,0.267-0.176,0.444-0.375,0.536
			c-0.122,0.057-0.258,0.089-0.409,0.089c-0.093,0-0.188-0.012-0.29-0.033c-0.429-0.078-0.644-0.288-0.644-0.624
			C82.877,30.948,82.883,30.891,82.897,30.835z M86.089,24.57l1.739-0.075c-0.282-1.269-0.54-2.352-0.771-3.255
			C86.715,22.301,86.393,23.41,86.089,24.57z"/>
		<path fill="#534741" d="M96.689,18.313c0-0.257,0.081-0.467,0.247-0.63c0.158-0.178,0.361-0.266,0.613-0.266
			c0.286,0,0.579-0.004,0.88-0.007c0.302-0.003,0.576-0.006,0.827-0.011c0.251-0.003,0.496-0.005,0.736-0.011
			c0.239-0.005,0.452-0.007,0.64-0.011c0.185-0.004,0.346-0.007,0.482-0.011s0.242-0.006,0.322-0.006l0.118-0.011
			c0.007,0,0.018,0,0.033,0c0.199,0,0.346,0.072,0.438,0.214c0.108,0.15,0.17,0.357,0.184,0.621c0,0.035,0,0.066,0,0.095
			c0,0.214-0.04,0.39-0.118,0.533c-0.101,0.164-0.258,0.245-0.473,0.245l-0.086,0.011c-0.058,0-0.141,0.002-0.246,0.007
			c-0.107,0.004-0.234,0.008-0.376,0.011c-0.145,0.002-0.31,0.008-0.494,0.009c-0.188,0.004-0.38,0.009-0.58,0.011
			c-0.201,0.003-0.424,0.007-0.667,0.014c-0.244,0.002-0.483,0.004-0.721,0.004c0.06,1.148,0.087,2.495,0.087,4.039l2.244-0.055
			c0.23,0,0.406,0.078,0.527,0.236c0.121,0.157,0.183,0.366,0.183,0.623c0,0.259-0.056,0.47-0.166,0.636
			c-0.112,0.163-0.278,0.246-0.5,0.246l-2.288,0.044c0,0.328-0.002,0.665-0.006,1.014c-0.004,0.348-0.007,0.678-0.011,0.988
			c-0.004,0.312-0.007,0.622-0.011,0.929c-0.004,0.309-0.008,0.596-0.015,0.86c-0.009,0.263-0.017,0.517-0.022,0.752
			c-0.007,0.237-0.013,0.445-0.017,0.633s-0.006,0.347-0.01,0.479c-0.004,0.134-0.005,0.235-0.005,0.306l-0.012,0.119
			c0,0.164-0.063,0.312-0.188,0.439c-0.125,0.132-0.355,0.194-0.691,0.194c-0.324,0-0.547-0.076-0.672-0.227
			s-0.182-0.311-0.167-0.482l0.012-0.128c0-0.087,0-0.211,0.004-0.368c0.004-0.155,0.007-0.34,0.012-0.552
			c0.002-0.21,0.008-0.452,0.015-0.727c0.008-0.272,0.016-0.557,0.022-0.857s0.013-0.626,0.016-0.972
			c0.003-0.35,0.008-0.698,0.012-1.05c0.003-0.349,0.007-0.717,0.01-1.101c0.004-0.381,0.006-0.753,0.006-1.11
			c0-0.359-0.002-0.715-0.006-1.069c-0.003-0.356-0.007-0.686-0.01-0.991c-0.004-0.305-0.01-0.604-0.017-0.894
			c-0.008-0.291-0.016-0.557-0.021-0.796c-0.007-0.24-0.015-0.464-0.021-0.672c-0.01-0.209-0.016-0.392-0.021-0.55
			c-0.008-0.158-0.014-0.292-0.018-0.401c-0.002-0.11-0.004-0.194-0.004-0.253L96.689,18.313z"/>
		<path fill="#534741" d="M103.329,24.108c0-1.854,0.229-3.336,0.688-4.447c0.287-0.717,0.681-1.281,1.182-1.696
			c0.565-0.48,1.242-0.72,2.029-0.72c1.505,0,2.575,0.777,3.212,2.331c0.451,1.054,0.677,2.563,0.677,4.532
			c0,2.191-0.168,3.823-0.506,4.897c-0.586,1.834-1.713,2.751-3.383,2.751c-0.895,0-1.629-0.253-2.202-0.763
			c-0.508-0.43-0.898-1.051-1.17-1.87C103.505,28.059,103.329,26.387,103.329,24.108z M105.068,24.108
			c0,2.199,0.159,3.739,0.478,4.62c0.32,0.881,0.881,1.32,1.682,1.32c0.373,0,0.704-0.105,0.994-0.321
			c0.29-0.215,0.535-0.631,0.735-1.248c0.28-0.887,0.42-2.344,0.42-4.371c0-1.732-0.176-3.024-0.526-3.879
			c-0.351-0.851-0.892-1.277-1.623-1.277c-0.708,0-1.245,0.454-1.611,1.365C105.252,21.169,105.068,22.433,105.068,24.108z"/>
		<path fill="#534741" d="M112.652,24.108c0-1.854,0.229-3.336,0.689-4.447c0.286-0.717,0.68-1.281,1.181-1.696
			c0.565-0.48,1.242-0.72,2.029-0.72c1.505,0,2.575,0.777,3.214,2.331c0.451,1.054,0.675,2.563,0.675,4.532
			c0,2.191-0.167,3.823-0.504,4.897c-0.589,1.834-1.716,2.751-3.385,2.751c-0.895,0-1.629-0.253-2.202-0.763
			c-0.507-0.43-0.897-1.051-1.171-1.87C112.828,28.059,112.652,26.387,112.652,24.108z M114.393,24.108
			c0,2.199,0.161,3.739,0.479,4.62c0.317,0.881,0.878,1.32,1.68,1.32c0.373,0,0.704-0.105,0.993-0.321
			c0.291-0.215,0.537-0.631,0.738-1.248c0.279-0.887,0.417-2.344,0.417-4.371c0-1.732-0.175-3.024-0.526-3.879
			c-0.35-0.851-0.891-1.277-1.622-1.277c-0.708,0-1.244,0.454-1.611,1.365C114.576,21.169,114.393,22.433,114.393,24.108z"/>
		<path fill="#534741" d="M122.419,18.276c0-0.243,0.082-0.448,0.247-0.612c0.15-0.173,0.473-0.269,0.967-0.29
			c0.858,0,1.606,0.096,2.245,0.29c0.73,0.209,1.367,0.574,1.912,1.096c1.096,1.076,1.675,2.828,1.739,5.258
			c0.016,0.353,0.021,0.689,0.021,1.01c0,1.01-0.067,1.883-0.203,2.62c-0.202,1.102-0.596,1.946-1.183,2.533
			c-0.53,0.551-1.199,0.931-2.009,1.137c-0.479,0.124-0.992,0.204-1.536,0.247c-0.394,0.029-0.712,0.045-0.956,0.054
			c-0.085,0-0.165-0.003-0.235-0.011c-0.308-0.022-0.542-0.109-0.698-0.269c-0.166-0.184-0.248-0.395-0.248-0.63v-0.04
			c0.05-1.605,0.076-3.165,0.076-4.683c0-0.61-0.004-1.212-0.012-1.808c-0.007-0.422-0.015-0.858-0.021-1.306
			c-0.008-0.447-0.014-0.859-0.021-1.232c-0.009-0.371-0.017-0.734-0.027-1.084c-0.011-0.352-0.02-0.663-0.026-0.936
			c-0.008-0.273-0.015-0.512-0.017-0.709c-0.004-0.202-0.006-0.358-0.006-0.473L122.419,18.276z M124.18,19.137
			c0.009,0.207,0.019,0.618,0.032,1.231c0.015,0.612,0.028,1.246,0.044,1.902c0.014,0.657,0.024,1.285,0.031,1.887
			c0,0.359,0,0.749,0,1.173c0,1.255-0.014,2.764-0.043,4.526c1.282-0.065,2.177-0.351,2.686-0.861
			c0.352-0.373,0.599-0.946,0.74-1.72c0.109-0.595,0.158-1.362,0.151-2.301c0-0.287-0.004-0.587-0.011-0.902
			c-0.063-1.979-0.477-3.336-1.235-4.074C126.045,19.488,125.247,19.2,124.18,19.137z"/>
	</g>
</g>
</svg>
